<?xml version="1.0" standalone="no"?>
<!DOCTYPE svg PUBLIC "-//W3C//DTD SVG 20010904//EN"
 "http://www.w3.org/TR/2001/REC-SVG-20010904/DTD/svg10.dtd">
<svg version="1.0" xmlns="http://www.w3.org/2000/svg"
 width="817.000000pt" height="817.000000pt" viewBox="0 0 817.000000 817.000000"
 preserveAspectRatio="xMidYMid meet">
<metadata>
Created by potrace 1.11, written by Peter Selinger 2001-2013
</metadata>
<g transform="translate(0.000000,817.000000) scale(0.100000,-0.100000)"
fill="#000000" stroke="none">
<path d="M3834 7881 c-2 -3 -28 -6 -57 -7 -91 -5 -205 -16 -292 -29 -79 -11
-112 -16 -140 -21 -16 -3 -39 -6 -50 -7 -11 -2 -24 -5 -30 -9 -5 -3 -18 -4
-27 -3 -10 2 -18 -1 -18 -5 0 -5 -8 -9 -17 -10 -55 -2 -73 -6 -73 -13 0 -4 -6
-7 -12 -6 -7 1 -20 -1 -28 -4 -8 -4 -26 -8 -40 -9 -14 -2 -31 -7 -38 -12 -7
-4 -16 -5 -19 -2 -3 3 -19 -2 -35 -10 -16 -8 -33 -12 -37 -9 -5 3 -11 0 -13
-6 -2 -7 -18 -12 -36 -13 -18 0 -32 -5 -32 -10 0 -5 -3 -7 -6 -3 -4 3 -19 0
-34 -8 -15 -8 -30 -11 -34 -8 -3 4 -6 1 -6 -6 0 -8 -7 -11 -15 -7 -8 3 -15 1
-15 -5 0 -6 -7 -9 -15 -5 -8 3 -15 1 -15 -4 0 -6 -7 -10 -15 -10 -8 0 -23 -4
-33 -9 -21 -12 -51 -21 -56 -18 -1 1 -10 -4 -19 -12 -10 -7 -17 -10 -17 -5 0
5 -4 3 -8 -3 -4 -7 -17 -14 -29 -16 -12 -1 -28 -8 -35 -15 -8 -6 -18 -9 -21
-5 -4 3 -7 1 -7 -5 0 -7 -7 -12 -15 -12 -8 0 -30 -9 -50 -20 -19 -11 -35 -16
-35 -12 0 4 -4 3 -8 -3 -9 -13 -84 -51 -94 -48 -4 2 -8 -2 -8 -8 0 -5 -4 -7
-10 -4 -5 3 -10 1 -10 -5 0 -6 -4 -8 -10 -5 -5 3 -10 1 -10 -5 0 -9 -38 -29
-50 -26 -3 0 -16 -9 -29 -21 -13 -12 -28 -20 -33 -17 -4 3 -8 0 -8 -6 0 -6 -4
-9 -9 -6 -5 3 -12 -1 -15 -10 -3 -8 -10 -12 -16 -9 -5 3 -10 1 -10 -4 0 -6 -5
-11 -10 -11 -6 0 -20 -9 -32 -20 -12 -10 -24 -17 -28 -15 -5 3 -11 -2 -14 -11
-4 -9 -9 -14 -12 -11 -4 3 -12 1 -19 -6 -25 -23 -68 -52 -71 -47 -2 3 -10 -4
-18 -15 -9 -11 -16 -16 -16 -11 0 4 -9 -2 -20 -15 -10 -13 -19 -20 -20 -15 0
4 -9 -2 -20 -15 -10 -13 -19 -21 -20 -16 0 4 -8 -1 -18 -10 -36 -35 -72 -63
-72 -56 0 3 -10 -6 -23 -20 -12 -15 -26 -27 -30 -27 -5 0 -19 -12 -32 -26 -14
-15 -25 -24 -25 -20 0 4 -22 -16 -49 -44 -27 -27 -51 -50 -55 -50 -8 0 -180
-175 -236 -240 -45 -52 -92 -106 -130 -147 -11 -12 -20 -26 -20 -30 0 -4 -12
-18 -27 -30 -14 -13 -22 -23 -18 -23 4 0 -2 -9 -15 -20 -13 -11 -19 -20 -14
-20 5 -1 -2 -10 -15 -20 -13 -11 -20 -20 -15 -20 4 0 -2 -9 -14 -20 -12 -12
-22 -25 -22 -30 0 -5 -8 -16 -18 -26 -9 -10 -17 -21 -17 -25 0 -5 -9 -19 -20
-31 -11 -13 -20 -26 -20 -30 0 -4 -9 -18 -20 -30 -11 -13 -20 -25 -21 -28 -3
-17 -29 -60 -36 -60 -5 0 -7 -4 -4 -8 3 -5 -3 -18 -14 -29 -10 -12 -16 -24
-13 -27 4 -3 2 -6 -3 -6 -6 0 -16 -16 -24 -35 -8 -19 -17 -35 -21 -35 -4 0 -9
-10 -13 -22 -3 -13 -16 -39 -28 -58 -12 -19 -23 -42 -24 -50 -2 -8 -8 -16 -14
-18 -5 -2 -8 -8 -4 -13 3 -5 0 -9 -5 -9 -6 0 -10 -3 -10 -7 4 -22 -3 -43 -16
-57 -9 -8 -16 -17 -16 -18 1 -15 -13 -48 -20 -48 -5 0 -6 -7 -3 -15 4 -8 2
-15 -3 -15 -5 0 -9 -10 -10 -22 -1 -11 -8 -25 -15 -29 -7 -5 -9 -9 -5 -9 4 0
2 -10 -5 -22 -6 -13 -13 -27 -15 -33 -10 -40 -29 -85 -35 -85 -4 0 -5 -7 -2
-15 4 -8 1 -15 -5 -15 -6 0 -8 -7 -5 -15 4 -8 1 -15 -5 -15 -6 0 -10 -3 -9 -7
5 -13 -25 -113 -33 -113 -4 0 -5 -9 -2 -20 3 -11 1 -20 -4 -20 -5 0 -10 -6
-10 -12 -1 -24 -11 -66 -21 -85 -5 -10 -7 -24 -5 -30 3 -7 0 -13 -6 -13 -6 0
-8 -7 -5 -15 3 -8 2 -20 -2 -27 -4 -6 -9 -26 -11 -43 -2 -16 -6 -37 -9 -45 -4
-8 -8 -24 -10 -35 -2 -11 -6 -33 -9 -50 -3 -16 -6 -37 -6 -45 0 -8 -3 -22 -6
-30 -3 -8 -7 -28 -9 -45 -2 -16 -6 -46 -9 -65 -3 -19 -8 -53 -10 -75 -2 -22
-6 -69 -10 -105 -4 -36 -7 -93 -7 -127 0 -35 -3 -65 -6 -67 -8 -5 -8 -299 0
-312 3 -5 6 -40 7 -79 4 -145 6 -185 12 -185 4 0 6 -18 5 -40 0 -22 2 -40 6
-40 4 0 7 -8 7 -17 0 -28 10 -103 21 -158 15 -68 23 -116 24 -142 0 -13 5 -23
10 -23 4 0 6 -6 3 -14 -3 -7 -1 -18 4 -23 5 -5 10 -25 11 -46 2 -20 7 -37 12
-37 4 0 6 -9 3 -20 -3 -10 -1 -20 3 -22 9 -3 22 -51 22 -80 -1 -10 4 -18 10
-18 5 0 8 -7 4 -15 -3 -8 0 -15 6 -15 6 0 8 -3 5 -7 -4 -3 -2 -12 5 -20 6 -7
8 -16 5 -20 -4 -3 -2 -12 4 -20 6 -7 8 -13 4 -13 -4 0 0 -11 9 -25 9 -14 14
-25 10 -25 -4 0 -1 -7 6 -15 7 -8 10 -15 7 -15 -4 0 7 -29 23 -64 15 -35 26
-67 23 -70 -3 -3 2 -12 11 -21 9 -9 16 -24 16 -33 0 -10 7 -27 15 -38 8 -12
11 -24 8 -28 -3 -3 -1 -6 6 -6 8 0 11 -7 7 -15 -3 -8 -2 -15 2 -15 6 0 36 -58
36 -70 0 -3 6 -11 13 -18 7 -8 11 -18 8 -23 -4 -5 -2 -9 3 -9 9 0 25 -37 23
-52 -1 -5 4 -8 10 -8 5 0 7 -4 4 -10 -3 -5 -1 -10 5 -10 6 0 8 -4 5 -10 -3 -6
-1 -10 4 -10 9 0 42 -62 42 -80 0 -3 7 -9 15 -13 8 -5 12 -12 9 -18 -4 -5 -1
-9 4 -9 6 0 11 -7 11 -15 0 -8 5 -15 11 -15 5 0 8 -4 5 -9 -4 -5 -3 -11 2 -13
9 -4 57 -80 57 -91 0 -4 7 -12 15 -17 8 -5 11 -10 5 -10 -5 0 -2 -5 8 -11 9
-5 17 -16 17 -23 0 -8 7 -17 16 -20 8 -3 12 -10 9 -16 -3 -5 -2 -10 2 -10 5 0
19 -18 33 -40 14 -22 29 -40 34 -40 5 0 7 -3 3 -6 -3 -4 4 -15 16 -25 12 -10
19 -18 15 -19 -4 0 3 -10 15 -23 32 -34 61 -72 59 -75 -2 -2 11 -16 28 -32 16
-15 30 -30 30 -32 0 -9 88 -103 213 -226 153 -152 207 -203 207 -196 0 3 16
-11 35 -30 19 -20 35 -33 35 -29 0 4 11 -3 25 -17 33 -34 53 -50 62 -50 7 0
42 -29 105 -84 9 -8 19 -12 22 -9 3 3 8 -2 12 -11 3 -9 10 -13 15 -10 5 3 9 0
9 -5 0 -6 7 -11 15 -11 8 0 15 -4 15 -10 0 -5 7 -10 15 -10 9 0 18 -7 21 -15
4 -8 10 -12 15 -9 5 3 9 0 9 -5 0 -6 7 -11 15 -11 8 0 15 -4 15 -10 0 -5 7
-10 15 -10 8 0 15 -5 15 -11 0 -5 5 -7 10 -4 6 3 13 -1 16 -9 3 -9 10 -14 14
-11 5 3 14 0 22 -7 7 -7 30 -22 51 -33 20 -11 37 -23 37 -28 0 -4 4 -6 9 -2 5
3 15 0 23 -7 7 -7 20 -14 28 -16 8 -2 18 -8 21 -14 3 -5 8 -9 10 -8 8 3 44
-14 51 -24 3 -5 17 -11 30 -13 13 -2 25 -8 26 -13 2 -6 7 -8 12 -5 5 3 16 -3
26 -12 10 -10 19 -17 21 -16 8 4 43 -11 43 -19 0 -5 6 -8 13 -7 6 1 23 -2 37
-9 14 -6 40 -16 58 -24 17 -7 32 -15 32 -18 0 -3 12 -6 27 -7 15 0 29 -6 31
-12 2 -6 8 -9 13 -5 5 3 9 1 9 -3 0 -5 12 -10 28 -11 15 -1 29 -7 30 -12 2 -6
8 -7 13 -4 6 3 15 1 22 -4 11 -9 49 -21 91 -29 11 -2 25 -8 31 -13 7 -5 15 -7
18 -3 4 3 7 2 7 -4 0 -6 9 -9 20 -6 12 3 20 0 20 -6 0 -7 4 -10 9 -7 5 3 27
-1 50 -9 23 -8 41 -12 41 -9 0 2 15 -2 34 -10 19 -8 37 -12 40 -9 2 3 10 1 17
-3 12 -7 42 -13 77 -16 6 -1 12 -5 12 -9 0 -4 10 -6 21 -4 12 3 27 1 33 -2 6
-4 24 -8 41 -10 28 -3 64 -9 75 -13 3 -1 17 -2 33 -2 15 -1 27 -3 27 -7 0 -3
17 -6 38 -7 20 -1 66 -4 102 -8 36 -4 84 -7 107 -7 24 0 45 -4 47 -7 7 -11
591 -2 612 10 5 3 26 6 47 6 20 0 38 1 40 2 1 2 18 4 37 6 86 10 105 12 105
14 0 1 11 3 25 5 14 2 41 7 60 10 19 4 47 8 63 9 15 0 27 4 27 8 0 4 8 7 18 8
54 3 72 6 72 14 0 4 9 6 20 3 11 -3 20 -2 20 2 0 4 6 8 13 9 14 0 37 6 84 21
17 5 34 6 38 3 3 -4 9 -1 13 5 4 6 19 13 32 15 14 2 31 7 38 11 6 5 12 6 12 3
0 -3 20 3 45 14 25 11 45 17 45 13 0 -3 6 -1 13 5 6 5 23 12 37 14 14 1 28 7
31 11 3 5 12 10 20 11 8 2 25 8 39 13 14 6 28 9 33 6 4 -2 7 1 7 7 0 7 6 10
14 7 8 -3 16 -1 18 4 2 6 12 12 23 14 11 2 22 4 25 5 3 1 8 2 13 1 4 0 7 4 7
10 0 5 5 7 10 4 6 -3 10 -2 10 4 0 6 12 14 28 17 15 4 33 11 40 17 6 5 12 6
12 1 0 -5 4 -4 8 1 9 13 164 90 175 87 4 -1 7 2 7 6 0 5 27 21 60 37 33 16 60
32 60 37 0 4 5 8 11 8 6 0 24 9 40 21 16 11 29 17 29 13 0 -4 9 2 20 13 10 12
28 24 40 28 11 3 20 11 20 16 0 5 7 9 15 9 8 0 24 9 35 20 11 11 24 20 29 20
5 0 11 3 13 8 2 4 23 21 48 37 25 17 50 37 57 45 7 8 13 11 13 6 0 -4 9 2 20
15 10 13 19 20 20 15 0 -5 11 4 25 20 14 16 25 25 25 19 0 -5 7 1 16 13 8 12
20 22 26 22 6 0 21 12 34 28 13 15 27 27 32 27 4 0 29 23 56 50 26 28 51 50
54 49 4 0 51 43 104 98 53 54 94 98 91 98 -3 0 17 23 43 51 98 101 105 109 97
109 -4 0 4 12 19 28 49 50 68 72 61 72 -4 0 2 9 13 20 32 32 49 54 49 63 0 5
9 15 19 23 11 8 16 14 10 14 -5 0 -1 7 9 14 10 8 18 17 17 21 -1 4 10 20 24
36 14 16 26 32 25 35 -1 3 8 16 19 29 11 13 18 26 15 29 -4 3 -1 6 6 6 7 0 10
4 7 9 -3 5 5 20 18 34 13 14 21 28 18 31 -3 3 0 6 7 6 7 0 10 4 7 8 -3 5 2 18
12 28 9 11 18 26 20 34 2 8 8 17 13 18 5 2 7 8 3 13 -3 5 2 12 10 15 9 3 14
10 11 14 -3 4 4 19 15 32 11 14 16 28 13 32 -3 3 -1 6 6 6 7 0 10 4 7 9 -3 5
3 20 15 34 11 15 20 30 20 34 -1 15 24 63 32 63 5 0 5 5 2 10 -3 6 -1 10 4 10
6 0 10 3 9 8 -1 4 4 20 10 35 7 16 12 33 12 38 0 5 5 9 11 9 5 0 7 4 4 10 -3
5 -1 10 5 10 6 0 9 4 5 10 -3 5 -1 17 5 27 11 19 28 64 27 73 0 3 10 24 22 47
12 24 19 43 15 43 -4 0 -1 7 6 15 7 8 9 15 6 15 -4 0 -1 10 6 23 7 12 13 24
13 27 1 3 5 22 9 43 5 20 12 37 18 37 5 0 8 6 7 13 -2 6 4 32 11 57 7 25 14
50 15 55 1 6 3 12 4 15 2 3 4 12 6 20 2 8 7 26 10 40 3 14 8 32 10 40 2 8 4
15 5 15 1 0 4 18 6 40 3 22 8 42 12 45 4 3 7 14 7 25 -1 11 3 36 7 55 5 19 10
49 13 65 2 17 6 53 10 80 4 28 8 56 8 63 0 6 3 12 7 12 3 0 5 19 4 43 -1 23 1
46 4 51 7 13 11 92 13 249 1 79 5 127 11 127 7 0 7 4 1 13 -6 6 -11 71 -12
142 -4 223 -6 255 -14 255 -4 0 -8 15 -8 33 1 56 -5 113 -13 125 -3 6 -4 22
-2 37 3 14 0 25 -6 25 -6 0 -8 13 -6 30 3 17 2 30 -2 30 -5 0 -11 32 -14 78 0
12 -5 22 -10 22 -4 0 -6 11 -4 25 3 14 2 25 -2 25 -4 0 -11 19 -15 43 -4 23
-10 51 -12 62 -3 11 -5 25 -7 30 -1 6 -5 16 -9 23 -5 6 -6 16 -2 21 3 5 0 13
-6 16 -5 4 -8 13 -5 21 3 8 1 14 -3 14 -5 0 -8 8 -7 18 2 9 -1 19 -5 22 -5 3
-10 15 -12 25 -2 11 -9 31 -14 45 -6 14 -8 29 -6 34 3 4 1 11 -5 15 -5 3 -12
17 -13 31 -2 14 -6 27 -9 30 -5 5 -30 67 -34 85 -1 6 -7 20 -14 31 -6 12 -8
24 -4 28 3 4 1 11 -6 15 -8 4 -14 14 -16 22 -1 8 -10 31 -19 52 -9 20 -17 41
-17 45 -1 4 -6 13 -12 20 -6 6 -7 12 -4 12 4 0 0 7 -8 16 -9 8 -16 24 -16 34
0 10 -4 20 -9 22 -5 2 -11 10 -13 18 -2 8 -9 21 -16 28 -7 8 -10 18 -7 23 4 5
3 9 -2 9 -4 0 -18 22 -30 48 -12 26 -33 65 -47 85 -14 20 -22 37 -18 37 4 0 3
4 -3 8 -5 4 -19 23 -29 42 -11 19 -23 37 -27 40 -4 3 -9 12 -11 20 -2 8 -13
25 -25 39 -12 14 -27 38 -34 53 -6 15 -16 28 -21 28 -5 0 -7 4 -4 9 3 5 -1 11
-9 15 -8 3 -15 12 -15 20 0 7 -7 17 -16 20 -9 4 -14 9 -11 12 3 3 -2 14 -11
24 -31 34 -42 49 -42 57 0 5 -9 15 -20 23 -11 8 -20 20 -20 26 0 7 -7 15 -16
18 -9 4 -14 9 -11 12 3 4 -8 19 -26 35 -17 16 -28 29 -25 29 4 0 -9 17 -30 39
-20 21 -66 71 -102 110 -117 129 -138 151 -146 151 -3 0 -33 27 -65 60 -33 33
-59 56 -59 53 0 -4 -16 10 -35 31 -19 21 -35 35 -35 31 0 -4 -11 4 -25 19 -13
14 -27 26 -31 26 -4 0 -17 11 -30 26 -13 14 -24 23 -24 20 0 -6 -28 16 -55 42
-8 6 -18 12 -24 12 -6 0 -11 3 -11 8 0 4 -18 18 -40 32 -22 14 -40 28 -40 32
0 5 -7 8 -15 8 -9 0 -18 7 -21 15 -4 8 -10 12 -15 9 -5 -3 -9 0 -9 5 0 6 -5
11 -10 11 -6 0 -20 9 -32 20 -12 10 -25 17 -29 14 -4 -2 -11 1 -16 8 -7 12
-67 48 -120 73 -13 5 -23 13 -23 18 0 4 -7 7 -15 7 -8 0 -15 5 -15 10 0 6 -3
9 -7 8 -15 -3 -83 32 -83 43 0 5 -4 7 -10 4 -5 -3 -10 -1 -10 5 0 6 -4 8 -10
5 -5 -3 -10 -1 -10 4 0 6 -3 11 -7 10 -16 -2 -53 14 -53 23 0 5 -6 8 -12 5 -7
-2 -35 8 -63 23 -27 15 -62 31 -77 34 -16 4 -28 11 -28 17 0 6 -4 8 -8 5 -5
-3 -19 1 -33 7 -13 7 -43 19 -66 26 -24 8 -43 18 -43 23 0 5 -4 6 -10 3 -5 -3
-23 1 -40 10 -16 8 -30 13 -30 9 0 -4 -7 -1 -15 6 -8 7 -15 9 -15 5 0 -4 -7
-2 -15 5 -8 7 -15 9 -15 6 0 -4 -9 -2 -21 4 -11 7 -32 14 -47 16 -14 3 -30 8
-36 12 -6 3 -22 8 -36 10 -14 2 -26 7 -28 12 -2 4 -12 6 -22 3 -11 -3 -20 -1
-20 5 0 6 -9 8 -20 5 -11 -3 -20 -1 -20 3 0 5 -17 10 -37 12 -20 1 -39 6 -43
10 -3 4 -14 8 -25 8 -22 1 -80 11 -80 14 0 3 -60 12 -77 11 -10 0 -18 3 -18 7
0 4 -12 8 -27 8 -70 3 -103 8 -103 14 0 4 -15 6 -32 4 -18 -2 -40 -1 -48 2
-15 6 -31 8 -185 18 -104 8 -435 12 -441 7z m1911 -1495 c17 -4 53 -14 80 -23
28 -10 52 -18 55 -18 24 -4 50 -18 50 -26 0 -6 5 -7 10 -4 6 3 10 1 10 -4 0
-6 6 -11 13 -11 6 0 25 -10 41 -23 43 -33 146 -133 146 -141 0 -4 9 -16 20
-28 11 -12 20 -28 20 -35 0 -7 5 -13 11 -13 5 0 7 -4 4 -10 -3 -5 -1 -10 5
-10 6 0 8 -4 5 -10 -3 -5 -2 -10 3 -10 5 0 12 -10 15 -22 3 -13 13 -43 22 -67
9 -24 14 -50 11 -58 -3 -7 -1 -13 4 -13 5 0 8 -16 6 -35 -1 -19 1 -35 4 -35 8
0 10 -2411 2 -2424 -3 -5 -6 -23 -7 -40 -2 -42 -46 -176 -56 -176 -5 0 -8 -3
-7 -7 3 -15 -22 -63 -32 -63 -6 0 -8 -4 -5 -10 3 -6 2 -10 -4 -10 -5 0 -12 -8
-15 -18 -12 -35 -196 -203 -196 -178 0 3 -9 -3 -20 -14 -12 -12 -25 -18 -30
-15 -6 4 -10 1 -10 -4 0 -6 -9 -11 -19 -11 -11 0 -22 -4 -25 -9 -3 -5 -20 -12
-38 -15 -18 -3 -44 -9 -58 -13 -14 -3 -247 -7 -517 -8 -271 -1 -496 -5 -500
-8 -3 -4 -7 -75 -7 -157 l-1 -150 25 -1 c14 0 303 -1 643 -1 339 -1 617 -4
617 -7 0 -3 19 -7 42 -7 23 -1 44 -6 46 -13 2 -6 8 -9 13 -5 5 3 9 0 9 -6 0
-6 4 -9 9 -6 5 4 32 -17 60 -45 47 -47 53 -56 50 -75 0 -4 4 -10 10 -13 16
-10 25 -69 25 -166 -1 -106 -5 -145 -17 -145 -4 0 -6 -4 -2 -10 8 -13 -56
-108 -77 -116 -10 -3 -18 -10 -18 -15 0 -8 -49 -33 -59 -29 -2 1 -7 -4 -12
-12 -7 -11 -360 -13 -2064 -14 -1130 0 -2055 3 -2055 7 0 4 -9 6 -20 4 -11 -2
-20 1 -20 6 0 6 -4 8 -9 4 -5 -3 -16 1 -24 9 -8 8 -17 12 -21 9 -3 -3 -8 2
-12 11 -3 9 -9 14 -14 11 -8 -5 -50 40 -50 55 0 6 -4 10 -9 10 -8 0 -24 37
-22 53 1 4 -4 7 -10 7 -6 0 -9 6 -6 14 3 8 3 17 -1 21 -10 10 -12 217 -2 240
16 38 23 60 22 67 -3 15 109 118 127 118 11 0 21 5 23 11 2 6 19 12 39 13 19
1 39 5 45 8 5 3 305 5 667 5 362 0 661 3 664 7 10 10 9 289 -1 301 -5 6 -191
10 -522 9 -283 0 -514 2 -514 6 0 4 -10 7 -22 6 -35 -1 -98 15 -98 25 0 5 -7
6 -15 3 -8 -4 -15 -1 -15 5 0 6 -4 10 -8 8 -18 -5 -159 88 -202 133 -59 62
-81 90 -72 90 4 0 -1 5 -11 11 -9 6 -15 14 -12 20 4 5 2 9 -4 9 -10 0 -51 79
-55 105 -1 5 -5 16 -9 23 -5 6 -5 17 -2 22 3 6 2 10 -3 10 -5 0 -9 6 -10 13
-2 30 -9 64 -14 72 -5 10 -4 2485 2 2495 1 3 2 9 1 14 -1 4 6 34 15 65 10 31
19 63 20 71 2 8 8 16 13 18 6 2 11 10 11 17 0 24 47 99 88 140 12 12 22 26 22
31 0 5 9 16 21 24 11 8 34 27 52 43 17 15 34 27 37 27 4 0 17 9 30 20 12 11
27 17 31 14 5 -3 9 0 9 5 0 6 4 11 9 11 5 0 26 8 47 17 22 9 41 17 44 18 3 0
15 4 27 8 12 5 38 9 58 11 20 2 38 6 41 8 7 8 3377 2 3409 -6z"/>
<path d="M2394 5817 c-8 -4 -14 -6 -14 -3 0 3 -12 -7 -26 -21 l-27 -27 0
-1175 c0 -647 2 -1182 4 -1190 6 -20 33 -49 42 -44 4 2 7 1 7 -4 0 -6 3179
-10 3267 -4 17 1 64 47 56 54 -3 4 -2 7 3 7 14 0 9 2317 -6 2356 -6 17 -22 37
-35 44 -20 11 -338 13 -1640 14 -889 1 -1623 -3 -1631 -7z"/>
</g>
</svg>
